<?xml version="1.0" encoding="UTF-8"?>
<svg width="84px" height="42px" viewBox="0 0 84 42" version="1.1" xmlns="http://www.w3.org/2000/svg" xmlns:xlink="http://www.w3.org/1999/xlink">
    <!-- Generator: Sketch 64 (93537) - https://sketch.com -->
    <title>path8092</title>
    <desc>Created with Sketch.</desc>
    <g id="Page-1" stroke="none" stroke-width="1" fill="none" fill-rule="evenodd" fill-opacity="0.06">
        <g id="Desktop-HD" transform="translate(-1078.000000, -636.000000)" fill="#000" fill-rule="nonzero">
            <g id="g8090" transform="translate(1078.000000, 636.000000)">
                <path d="M5.7119999,41.9126611 C5.7119999,41.8646249 5.9009999,41.5259268 6.1319999,41.1599993 C6.66870226,40.3098084 6.66026211,40.086318 6.04494986,38.8549688 C5.1115669,36.9871045 3.24117438,35.6470189 1.02191914,35.2561048 L0,35.0760978 L0,31.5577058 L0,28.0393154 L1.04999998,28.1481206 C4.75746088,28.5323047 7.6428867,29.9445329 10.1366958,32.595467 C10.8302878,33.3327602 11.4498219,33.9359994 11.5134381,33.9359994 C11.5770545,33.9359994 12.2444558,33.3565607 12.996552,32.6483567 C13.7486484,31.9401527 14.8364997,30.9815868 15.4139997,30.5182092 C15.9914997,30.0548332 16.4639997,29.5778141 16.4639997,29.4581661 C16.4639997,29.0639709 14.5292274,26.9839075 13.128325,25.8719996 C9.74780083,23.1888498 6.17033111,21.7314145 1.88999997,21.2935897 L0,21.1002654 L0,17.6061326 C0,15.6843596 0.056699999,14.1127798 0.125999998,14.113733 C1.19828172,14.1284834 4.65241334,14.5466406 5.8645728,14.8084439 C11.6904582,16.0667236 17.4544487,19.5033784 21.0730242,23.8761546 C21.713788,24.6504699 22.3422071,25.3713848 22.4695107,25.4781874 C22.6501309,25.6297217 23.0195041,25.5231072 24.1511386,24.9928052 C24.9487304,24.6190405 26.3595944,24.0271076 27.2863932,23.6773954 C28.2131904,23.327685 28.9944593,22.9726186 29.0225455,22.8883599 C29.1272582,22.5742235 26.4032374,19.1722958 24.6154705,17.3845288 C18.5409282,11.3099859 10.440913,7.66602114 2.14199996,7.27435754 L0,7.17326673 L0,3.58663345 L0,0 L0.881999985,0 C1.36709998,0 2.58944578,0.0785560544 3.59832407,0.174225791 C4.88062184,0.295823299 5.46557532,0.294893755 5.54206119,0.171137027 C5.61525559,0.0527059553 7.05369576,0.00898233321 9.88746797,0.0390516413 L14.1234619,0.0839999986 L13.5018851,0.971754219 C13.1481419,1.47698048 12.9465994,1.91581535 13.0341539,1.99018307 C13.1187692,2.06205414 13.8683998,2.37178263 14.6999997,2.67846847 C15.5315997,2.98515432 16.9193486,3.56496212 17.7838867,3.96693034 L19.3557736,4.69778157 L19.7998866,4.17161952 C21.3697273,2.31175304 22.7286255,0.842790617 23.2403938,0.452446319 L23.8335817,0 L42.013488,0 L60.1933943,0 L60.922474,0.597426083 C61.3234682,0.92601044 62.2006533,1.84644983 62.8717763,2.6428471 C64.8240035,4.95948508 64.4216367,4.8012237 66.2261835,3.96222399 C67.0851826,3.56284432 68.4683988,2.98515432 69.2999988,2.67846847 C70.1315988,2.37178263 70.8812299,2.06205414 70.9658448,1.99018307 C71.0533997,1.91581535 70.8518568,1.47698048 70.4981143,0.971754219 L69.8765362,0.0839999986 L74.1125301,0.0390516413 C76.946302,0.00898233321 78.3847431,0.0527059587 78.4579374,0.171137027 C78.5344227,0.294893755 79.1193769,0.295823299 80.4016738,0.174225707 C81.4105525,0.0785560544 82.6328986,0 83.1179986,0 L84,0 L84,3.61199994 L84,7.22399988 L82.6873172,7.22399988 C81.9653422,7.22399988 80.5252361,7.33603 79.4870802,7.47295554 C71.8112577,8.48534419 64.866284,11.9102158 59.3845281,17.3864087 C57.5979977,19.1711248 54.8725555,22.5736674 54.9774531,22.8883599 C55.0055393,22.9726186 55.7868082,23.327685 56.7136054,23.6773954 C57.6404042,24.0271076 59.0638699,24.6249457 59.8768639,25.0059277 L61.3550354,25.6986219 L61.7433623,25.2393116 C63.6635804,22.9680961 64.6151895,21.9751808 65.9262867,20.8748228 C70.5586934,16.9870022 75.7856706,14.8098082 81.7319986,14.2912684 C82.8407986,14.1945773 83.8046986,14.1146864 83.8739986,14.113733 C83.9432986,14.1127754 84,15.6843596 84,17.6061326 L84,21.1002654 L82.1099986,21.2935897 C77.8296678,21.7314145 74.2521969,23.1888498 70.8716741,25.8719996 C69.4707708,26.9839075 67.5359988,29.0639709 67.5359988,29.4581661 C67.5359988,29.5778141 68.0084988,30.0548332 68.5859988,30.5182092 C69.1634988,30.9815868 70.2513509,31.9401527 71.0034466,32.6483567 C71.7555422,33.3565607 72.422944,33.9359994 72.4865606,33.9359994 C72.5501772,33.9359994 73.1697108,33.3327602 73.8633021,32.595467 C76.3571125,29.9445329 79.2425377,28.5323047 82.9499986,28.1481206 L84,28.0393154 L84,31.5577058 L84,35.0760978 L82.9780798,35.2561048 C80.7588233,35.6470189 78.8884323,36.9871045 77.9550479,38.8549688 C77.3397361,40.086318 77.3312958,40.3098084 77.8679987,41.1599993 C78.0989987,41.5259268 78.2879987,41.8646249 78.2879987,41.9126611 C78.2879987,41.9606974 76.3757337,42 74.0385211,42 L69.7890418,42 L69.1245211,41.1194105 C68.0046348,39.6353976 64.8594061,36.6042359 63,35.2170044 C58.4247374,31.8035805 53.8028038,29.7801852 48.1319992,28.7080781 C45.7558929,28.2588578 40.6990359,28.0938785 38.1610616,28.382778 C30.2445859,29.2839132 22.9875706,32.7791481 17.3879997,38.3878196 C16.3715997,39.405871 15.2409649,40.6350867 14.8754781,41.1194105 L14.2109565,42 L9.96147818,42 C7.62426508,42 5.7119999,41.9606974 5.7119999,41.9126611 Z M41.9999993,21.0839996 C43.6169993,21.0839996 45.4886671,21.1412809 46.1592609,21.2112899 L47.3785226,21.3385801 L47.9652609,20.4213606 C48.287967,19.9168885 48.5519992,19.3613831 48.5519992,19.1869034 C48.5519992,18.5617132 47.5257443,16.8289041 46.6955841,16.0523856 C44.0360299,13.5646847 39.9639687,13.5646847 37.3044145,16.0523856 C36.4742543,16.8289041 35.4479994,18.5617132 35.4479994,19.1869034 C35.4479994,19.3613831 35.7120316,19.9168885 36.0347377,20.4213606 L36.621476,21.3385801 L37.8407377,21.2112899 C38.5113315,21.1412809 40.3829993,21.0839996 41.9999993,21.0839996 Z M32.1976094,11.2979998 C33.3188447,10.1878718 34.2580554,9.43291105 35.1119994,8.95533779 C38.5909131,7.00973537 42.6723823,6.60111284 46.3614489,7.82908227 C48.4792737,8.53403714 49.9719805,9.48572437 51.8023892,11.2979998 C52.7123041,12.1988998 53.495552,12.9359998 53.5429414,12.9359998 C53.5903308,12.9359998 54.2444556,12.3565604 54.9965513,11.6483566 C55.748647,10.9401528 56.836499,9.98158694 57.413999,9.51821019 C57.991499,9.05483344 58.463999,8.57781408 58.463999,8.45816717 C58.463999,8.06397181 56.529227,5.9839079 55.1283238,4.87199992 C51.7419126,2.18417619 48.1581501,0.7262173 43.8899993,0.299983063 C38.5770094,-0.230592831 33.2618171,1.38750684 28.8716748,4.87199992 C27.4623195,5.99061597 25.5359996,8.06469118 25.5359996,8.46353074 C25.5359996,8.58612773 25.9706996,9.02892683 26.5019995,9.4475289 C27.0332995,9.86613079 28.1105995,10.8188006 28.8959995,11.564573 C29.6813995,12.3103451 30.3733243,12.9240049 30.4336094,12.9282612 C30.4938945,12.9325166 31.2876945,12.1988998 32.1976094,11.2979998 Z M24.3599996,41.4877875 C25.4473191,40.5573262 27.9451447,38.9503861 29.5771488,38.1314079 C37.3709492,34.2202957 46.6290494,34.2202957 54.4228498,38.1314079 C56.0899994,38.9680227 58.6029619,40.5796786 59.639999,41.4773597 L60.227999,41.9863442 L41.9999993,41.9886458 L23.7719996,41.9909474 L24.3599996,41.487774 L24.3599996,41.4877875 Z" id="path8092"></path>
            </g>
        </g>
    </g>
</svg>